<svg width="176" height="79" viewBox="0 0 176 79" fill="none" xmlns="http://www.w3.org/2000/svg">
<path d="M2.016 38.024H6.048V24.248L1.44 22.664L2.448 19.688L8.784 21.896C9.68 21.224 10.704 20.696 11.856 20.312C13.04 19.896 14.176 19.688 15.264 19.688C18.496 19.688 20.8 20.52 22.176 22.184C22.976 21.448 24 20.856 25.248 20.408C26.528 19.928 27.776 19.688 28.992 19.688C31.904 19.688 34 20.328 35.28 21.608C36.592 22.888 37.248 24.952 37.248 27.8V38.024H41.28V41H31.344V38.024H33.504V28.568C33.504 26.456 33.136 24.968 32.4 24.104C31.696 23.208 30.48 22.76 28.752 22.76C27.728 22.76 26.72 22.92 25.728 23.24C24.768 23.528 24.032 23.912 23.52 24.392V38.024H25.68V41H17.616V38.024H19.776V28.568C19.776 26.456 19.408 24.968 18.672 24.104C17.968 23.208 16.752 22.76 15.024 22.76C14 22.76 12.992 22.92 12 23.24C11.04 23.528 10.304 23.912 9.792 24.392V38.024H11.952V41H2.016V38.024ZM59.127 39.608C57.047 41.016 54.791 41.72 52.359 41.72C49.639 41.72 47.575 41.176 46.167 40.088C44.791 38.968 44.103 37.352 44.103 35.24C44.103 33.192 44.775 31.656 46.119 30.632C47.463 29.576 49.447 29.048 52.071 29.048L58.263 29.096C58.263 26.952 57.863 25.368 57.063 24.344C56.263 23.288 55.047 22.76 53.415 22.76C51.815 22.76 50.375 22.952 49.095 23.336L48.615 25.976L45.543 25.4L46.311 21.032C48.807 20.136 51.127 19.688 53.271 19.688C56.151 19.688 58.327 20.472 59.799 22.04C61.271 23.576 62.007 25.864 62.007 28.904V37.256L66.567 38.744L65.607 41.816L59.127 39.608ZM52.215 32.072C50.807 32.072 49.735 32.344 48.999 32.888C48.295 33.432 47.943 34.232 47.943 35.288C47.943 36.376 48.327 37.208 49.095 37.784C49.895 38.36 51.047 38.648 52.551 38.648C54.759 38.648 56.663 38.04 58.263 36.824V32.12L52.215 32.072ZM75.0206 21.944C76.0766 21.24 77.2926 20.696 78.6686 20.312C80.0766 19.896 81.4686 19.688 82.8446 19.688C83.9966 19.688 84.6046 19.72 84.6686 19.784L85.4846 24.824L82.3646 25.496L81.8846 22.808C80.8926 22.808 79.8686 22.952 78.8126 23.24C77.7886 23.528 76.8446 23.928 75.9806 24.44V38.024H80.6846V41H68.2046V38.024H72.2366V24.296L67.6286 22.712L68.6366 19.736L75.0206 21.944ZM102.87 23.288C101.494 22.84 100.054 22.616 98.5504 22.616C96.3424 22.616 94.6144 23.304 93.3664 24.68C92.1184 26.056 91.4944 28.056 91.4944 30.68C91.4944 33.176 92.1664 35.112 93.5104 36.488C94.8544 37.864 96.5504 38.552 98.5984 38.552C100.71 38.552 102.726 37.896 104.646 36.584L106.23 38.936C104.854 39.928 103.622 40.632 102.534 41.048C101.446 41.496 99.9744 41.72 98.1184 41.72C96.0704 41.72 94.2464 41.272 92.6464 40.376C91.0784 39.48 89.8464 38.2 88.9504 36.536C88.0864 34.872 87.6544 32.92 87.6544 30.68C87.6544 28.376 88.1344 26.392 89.0944 24.728C90.0544 23.032 91.3664 21.752 93.0304 20.888C94.6944 20.024 96.5504 19.592 98.5984 19.592C99.7184 19.592 100.726 19.704 101.622 19.928C102.55 20.12 103.974 20.488 105.894 21.032L106.566 26.216L103.494 26.888L102.87 23.288ZM13.92 66.704C19.04 66.704 21.6 68.56 21.6 72.272C21.6 74.288 20.688 75.856 18.864 76.976C17.072 78.128 14.576 78.704 11.376 78.704C9.84 78.704 7.968 78.448 5.76 77.936C3.552 77.456 2 76.944 1.104 76.4L2.448 73.568C3.568 74.144 4.976 74.608 6.672 74.96C8.368 75.344 9.936 75.536 11.376 75.536C13.456 75.536 15.056 75.296 16.176 74.816C17.328 74.336 17.904 73.6 17.904 72.608C17.904 70.656 16.24 69.68 12.912 69.68H6.048V61.472C4.608 60.864 3.504 59.984 2.736 58.832C1.968 57.648 1.584 56.256 1.584 54.656C1.584 52.224 2.432 50.288 4.128 48.848C5.824 47.408 8.128 46.688 11.04 46.688C13.376 46.688 15.328 47.136 16.896 48.032L23.712 45.488L24.816 48.656L19.152 49.952C20.112 51.136 20.592 52.624 20.592 54.416C20.592 56.848 19.728 58.784 18 60.224C16.272 61.632 13.936 62.336 10.992 62.336C10.416 62.336 9.984 62.32 9.696 62.288V66.704H13.92ZM11.088 49.76C9.232 49.76 7.808 50.176 6.816 51.008C5.856 51.84 5.376 53.008 5.376 54.512C5.376 55.92 5.888 57.072 6.912 57.968C7.968 58.832 9.36 59.264 11.088 59.264C12.816 59.264 14.192 58.832 15.216 57.968C16.272 57.072 16.8 55.92 16.8 54.512C16.8 53.008 16.304 51.84 15.312 51.008C14.352 50.176 12.944 49.76 11.088 49.76ZM42.4395 66.608C40.3595 68.016 38.1035 68.72 35.6715 68.72C32.9515 68.72 30.8875 68.176 29.4795 67.088C28.1035 65.968 27.4155 64.352 27.4155 62.24C27.4155 60.192 28.0875 58.656 29.4315 57.632C30.7755 56.576 32.7595 56.048 35.3835 56.048L41.5755 56.096C41.5755 53.952 41.1755 52.368 40.3755 51.344C39.5755 50.288 38.3595 49.76 36.7275 49.76C35.1275 49.76 33.6875 49.952 32.4075 50.336L31.9275 52.976L28.8555 52.4L29.6235 48.032C32.1195 47.136 34.4395 46.688 36.5835 46.688C39.4635 46.688 41.6395 47.472 43.1115 49.04C44.5835 50.576 45.3195 52.864 45.3195 55.904V64.256L49.8795 65.744L48.9195 68.816L42.4395 66.608ZM35.5275 59.072C34.1195 59.072 33.0475 59.344 32.3115 59.888C31.6075 60.432 31.2555 61.232 31.2555 62.288C31.2555 63.376 31.6395 64.208 32.4075 64.784C33.2075 65.36 34.3595 65.648 35.8635 65.648C38.0715 65.648 39.9755 65.04 41.5755 63.824V59.12L35.5275 59.072ZM51.4691 65.024H55.5011V51.248L50.8931 49.664L51.9011 46.688L58.2371 48.896C59.1331 48.224 60.1571 47.696 61.3091 47.312C62.4931 46.896 63.6291 46.688 64.7171 46.688C67.9491 46.688 70.2531 47.52 71.6291 49.184C72.4291 48.448 73.4531 47.856 74.7011 47.408C75.9811 46.928 77.2291 46.688 78.4451 46.688C81.3571 46.688 83.4531 47.328 84.7331 48.608C86.0451 49.888 86.7011 51.952 86.7011 54.8V65.024H90.7331V68H80.7971V65.024H82.9571V55.568C82.9571 53.456 82.5891 51.968 81.8531 51.104C81.1491 50.208 79.9331 49.76 78.2051 49.76C77.1811 49.76 76.1731 49.92 75.1811 50.24C74.2211 50.528 73.4851 50.912 72.9731 51.392V65.024H75.1331V68H67.0691V65.024H69.2291V55.568C69.2291 53.456 68.8611 51.968 68.1251 51.104C67.4211 50.208 66.2051 49.76 64.4771 49.76C63.4531 49.76 62.4451 49.92 61.4531 50.24C60.4931 50.528 59.7571 50.912 59.2451 51.392V65.024H61.4051V68H51.4691V65.024ZM112.767 65.552C111.487 66.64 110.175 67.44 108.831 67.952C107.487 68.464 105.983 68.72 104.319 68.72C100.895 68.72 98.1914 67.744 96.2074 65.792C94.2234 63.84 93.2314 61.136 93.2314 57.68C93.2314 55.504 93.6634 53.584 94.5274 51.92C95.3914 50.256 96.6074 48.976 98.1754 48.08C99.7754 47.152 101.615 46.688 103.695 46.688C106.575 46.688 108.847 47.6 110.511 49.424C112.175 51.216 113.007 53.648 113.007 56.72C113.007 57.104 112.975 57.712 112.911 58.544L96.9274 58.64C97.0554 60.976 97.7914 62.72 99.1354 63.872C100.511 65.024 102.191 65.6 104.175 65.6C106.895 65.6 109.183 64.832 111.039 63.296L112.767 65.552ZM109.311 55.616C109.279 53.824 108.751 52.384 107.727 51.296C106.735 50.176 105.407 49.616 103.743 49.616C102.015 49.616 100.511 50.176 99.2314 51.296C97.9834 52.416 97.2314 53.872 96.9754 55.664L109.311 55.616Z" fill="black"/>
<g clip-path="url(#clip0)">
<path d="M165.788 39.4365C164.78 39.4365 163.998 40.1877 163.998 41.167V64.8048H151.303V55.1525C151.303 54.247 150.522 53.4554 149.577 53.4554H140.398C139.389 53.4554 138.575 54.2469 138.575 55.1525V64.8048H125.912V41.9518C125.912 41.0394 125.132 40.2816 124.122 40.2816C123.178 40.2816 122.397 41.0394 122.397 41.9518V66.5353C122.397 67.4476 123.178 68.2055 124.122 68.2055H140.398C141.342 68.2055 142.123 67.4476 142.123 66.5353V56.883H147.787V66.5353C147.787 67.4476 148.568 68.2055 149.577 68.2055H165.788C166.732 68.2055 167.513 67.4476 167.513 66.5353V41.1671C167.513 40.1878 166.732 39.4365 165.788 39.4365Z" fill="black"/>
<path d="M175.493 40.7847L161.366 27.0809V17.7372C161.366 16.7645 160.552 16.0134 159.543 16.0134C158.599 16.0134 157.817 16.7646 157.817 17.7372V23.6534L146.164 12.3308C145.807 11.982 145.383 11.7941 144.96 11.7941C144.472 11.7941 144.048 11.9886 143.69 12.3308L114.426 40.5969C113.724 41.2743 113.678 42.361 114.426 42.9848C115.077 43.7092 116.198 43.6623 116.9 42.9848L144.96 15.9462L172.954 43.2397C173.246 43.5215 173.67 43.6825 174.224 43.6825C174.712 43.6825 175.135 43.5215 175.493 43.2397C176.144 42.6092 176.193 41.4689 175.493 40.7847Z" fill="black"/>
</g>
<defs>
<clipPath id="clip0">
<rect width="62.1176" height="60" fill="white" transform="matrix(-1 0 0 1 176 10)"/>
</clipPath>
</defs>
</svg>
